<svg width="1664" height="361" viewBox="0 0 1664 361" fill="none" xmlns="http://www.w3.org/2000/svg">
<path d="M-207.993 1.30325V59.9495H-164.986V1.30325H-207.993ZM1830.29 359.697H1873.3V301.051H1830.29V359.697ZM1785.98 359.697H1828.99V301.051H1785.98V359.697ZM1741.67 359.697H1784.68V301.051H1741.67V359.697ZM1697.36 359.697H1740.36V301.051H1697.36V359.697ZM1653.05 359.697H1696.05V301.051H1653.05V359.697ZM1608.74 359.697H1651.74V301.051H1608.74V359.697ZM1564.43 359.697H1607.43V301.051H1564.43V359.697ZM1520.12 359.697H1563.12V301.051H1520.12V359.697ZM1475.81 359.697H1518.81V301.051H1475.81V359.697ZM1431.49 359.697H1474.5V301.051H1431.49V359.697ZM1387.18 359.697H1430.19V301.051H1387.18V359.697ZM1342.87 359.697H1385.88V301.051H1342.87V359.697ZM1298.56 359.697H1341.57V301.051H1298.56V359.697ZM1254.25 359.697H1297.26V301.051H1254.25V359.697ZM1209.94 359.697H1252.95V301.051H1209.94V359.697ZM1165.63 359.697H1208.64V301.051H1165.63V359.697ZM1121.32 359.697H1164.33V301.051H1121.32V359.697ZM1077.01 359.697H1120.02V301.051H1077.01V359.697ZM1032.7 359.697H1075.71V301.051H1032.7V359.697ZM988.39 359.697H1031.4V301.051H988.39V359.697ZM944.079 359.697H987.087V301.051H944.079V359.697ZM899.769 359.697H942.776V301.051H899.769V359.697ZM855.459 359.697H898.466V301.051H855.459V359.697ZM811.148 359.697H854.155V301.051H811.148V359.697ZM766.838 359.697H809.845V301.051H766.838V359.697ZM722.527 359.697H765.534V301.051H722.527V359.697ZM678.217 359.697H721.224V301.051H678.217V359.697ZM633.906 359.697H676.913V301.051H633.906V359.697ZM589.596 359.697H632.603V301.051H589.596V359.697ZM545.285 359.697H588.292V301.051H545.285V359.697ZM500.975 359.697H543.982V301.051H500.975V359.697ZM456.664 359.697H499.671V301.051H456.664V359.697ZM412.354 359.697H455.361V301.051H412.354V359.697ZM368.043 359.697H411.051V301.051H368.043V359.697ZM323.733 359.697H366.74V301.051H323.733V359.697ZM279.422 359.697H322.43V301.051H279.422V359.697ZM235.112 359.697H278.119V301.051H235.112V359.697ZM190.801 359.697H233.809V301.051H190.801V359.697ZM146.491 359.697H189.498V301.051H146.491V359.697ZM102.181 359.697H145.188V301.051H102.181V359.697ZM57.87 359.697H100.877V301.051H57.87V359.697ZM13.5596 359.697H56.5668V301.051H13.5596V359.697ZM-30.7509 359.697H12.2563V301.051H-30.7509V359.697ZM-75.0614 359.697H-32.0541V301.051H-75.0614V359.697ZM-119.372 359.697H-76.3646V301.051H-119.372V359.697ZM-163.682 359.697H-120.675V301.051H-163.682V359.697ZM-207.993 359.697H-164.986V301.051H-207.993V359.697ZM1830.29 299.747H1873.3V241.101H1830.29V299.747ZM1785.98 299.747H1828.99V241.101H1785.98V299.747ZM1741.67 299.747H1784.68V241.101H1741.67V299.747ZM1697.36 299.747H1740.36V241.101H1697.36V299.747ZM1653.05 299.747H1696.05V241.101H1653.05V299.747ZM1608.74 299.747H1651.74V241.101H1608.74V299.747ZM1564.43 299.747H1607.43V241.101H1564.43V299.747ZM1520.12 299.747H1563.12V241.101H1520.12V299.747ZM1475.81 299.747H1518.81V241.101H1475.81V299.747ZM1431.49 299.747H1474.5V241.101H1431.49V299.747ZM1387.18 299.747H1430.19V241.101H1387.18V299.747ZM1342.87 299.747H1385.88V241.101H1342.87V299.747ZM1298.56 299.747H1341.57V241.101H1298.56V299.747ZM1254.25 299.747H1297.26V241.101H1254.25V299.747ZM1209.94 299.747H1252.95V241.101H1209.94V299.747ZM1165.63 299.747H1208.64V241.101H1165.63V299.747ZM1121.32 299.747H1164.33V241.101H1121.32V299.747ZM1077.01 299.747H1120.02V241.101H1077.01V299.747ZM1032.7 299.747H1075.71V241.101H1032.7V299.747ZM988.39 299.747H1031.4V241.101H988.39V299.747ZM944.079 299.747H987.087V241.101H944.079V299.747ZM899.769 299.747H942.776V241.101H899.769V299.747ZM855.459 299.747H898.466V241.101H855.459V299.747ZM811.148 299.747H854.155V241.101H811.148V299.747ZM766.838 299.747H809.845V241.101H766.838V299.747ZM722.527 299.747H765.534V241.101H722.527V299.747ZM678.217 299.747H721.224V241.101H678.217V299.747ZM633.906 299.747H676.913V241.101H633.906V299.747ZM589.596 299.747H632.603V241.101H589.596V299.747ZM545.285 299.747H588.292V241.101H545.285V299.747ZM500.975 299.747H543.982V241.101H500.975V299.747ZM456.664 299.747H499.671V241.101H456.664V299.747ZM412.354 299.747H455.361V241.101H412.354V299.747ZM368.043 299.747H411.051V241.101H368.043V299.747ZM323.733 299.747H366.74V241.101H323.733V299.747ZM279.422 299.747H322.43V241.101H279.422V299.747ZM235.112 299.747H278.119V241.101H235.112V299.747ZM190.801 299.747H233.809V241.101H190.801V299.747ZM146.491 299.747H189.498V241.101H146.491V299.747ZM102.181 299.747H145.188V241.101H102.181V299.747ZM57.87 299.747H100.877V241.101H57.87V299.747ZM13.5596 299.747H56.5668V241.101H13.5596V299.747ZM-30.7509 299.747H12.2563V241.101H-30.7509V299.747ZM-75.0614 299.747H-32.0541V241.101H-75.0614V299.747ZM-119.372 299.747H-76.3646V241.101H-119.372V299.747ZM-163.682 299.747H-120.675V241.101H-163.682V299.747ZM-207.993 299.747H-164.986V241.101H-207.993V299.747ZM1830.29 239.798H1873.3V181.152H1830.29V239.798ZM1785.98 239.798H1828.99V181.152H1785.98V239.798ZM1741.67 239.798H1784.68V181.152H1741.67V239.798ZM1697.36 239.798H1740.36V181.152H1697.36V239.798ZM1653.05 239.798H1696.05V181.152H1653.05V239.798ZM1608.74 239.798H1651.74V181.152H1608.74V239.798ZM1564.43 239.798H1607.43V181.152H1564.43V239.798ZM1520.12 239.798H1563.12V181.152H1520.12V239.798ZM1475.81 239.798H1518.81V181.152H1475.81V239.798ZM1431.49 239.798H1474.5V181.152H1431.49V239.798ZM1387.18 239.798H1430.19V181.152H1387.18V239.798ZM1342.87 239.798H1385.88V181.152H1342.87V239.798ZM1298.56 239.798H1341.57V181.152H1298.56V239.798ZM1254.25 239.798H1297.26V181.152H1254.25V239.798ZM1209.94 239.798H1252.95V181.152H1209.94V239.798ZM1165.63 239.798H1208.64V181.152H1165.63V239.798ZM1121.32 239.798H1164.33V181.152H1121.32V239.798ZM1077.01 239.798H1120.02V181.152H1077.01V239.798ZM1032.7 239.798H1075.71V181.152H1032.7V239.798ZM988.39 239.798H1031.4V181.152H988.39V239.798ZM944.079 239.798H987.087V181.152H944.079V239.798ZM899.769 239.798H942.776V181.152H899.769V239.798ZM855.459 239.798H898.466V181.152H855.459V239.798ZM811.148 239.798H854.155V181.152H811.148V239.798ZM766.838 239.798H809.845V181.152H766.838V239.798ZM722.527 239.798H765.534V181.152H722.527V239.798ZM678.217 239.798H721.224V181.152H678.217V239.798ZM633.906 239.798H676.913V181.152H633.906V239.798ZM589.596 239.798H632.603V181.152H589.596V239.798ZM545.285 239.798H588.292V181.152H545.285V239.798ZM500.975 239.798H543.982V181.152H500.975V239.798ZM456.664 239.798H499.671V181.152H456.664V239.798ZM412.354 239.798H455.361V181.152H412.354V239.798ZM368.043 239.798H411.051V181.152H368.043V239.798ZM323.733 239.798H366.74V181.152H323.733V239.798ZM279.422 239.798H322.43V181.152H279.422V239.798ZM235.112 239.798H278.119V181.152H235.112V239.798ZM190.801 239.798H233.809V181.152H190.801V239.798ZM146.491 239.798H189.498V181.152H146.491V239.798ZM102.181 239.798H145.188V181.152H102.181V239.798ZM57.87 239.798H100.877V181.152H57.87V239.798ZM13.5596 239.798H56.5668V181.152H13.5596V239.798ZM-30.7509 239.798H12.2563V181.152H-30.7509V239.798ZM-75.0614 239.798H-32.0541V181.152H-75.0614V239.798ZM-119.372 239.798H-76.3646V181.152H-119.372V239.798ZM-163.682 239.798H-120.675V181.152H-163.682V239.798ZM-207.993 239.798H-164.986V181.152H-207.993V239.798ZM1830.29 179.848H1873.3V121.202H1830.29V179.848ZM1785.98 179.848H1828.99V121.202H1785.98V179.848ZM1741.67 179.848H1784.68V121.202H1741.67V179.848ZM1697.36 179.848H1740.36V121.202H1697.36V179.848ZM1653.05 179.848H1696.05V121.202H1653.05V179.848ZM1608.74 179.848H1651.74V121.202H1608.74V179.848ZM1564.43 179.848H1607.43V121.202H1564.43V179.848ZM1520.12 179.848H1563.12V121.202H1520.12V179.848ZM1475.81 179.848H1518.81V121.202H1475.81V179.848ZM1431.49 179.848H1474.5V121.202H1431.49V179.848ZM1387.18 179.848H1430.19V121.202H1387.18V179.848ZM1342.87 179.848H1385.88V121.202H1342.87V179.848ZM1298.56 179.848H1341.57V121.202H1298.56V179.848ZM1254.25 179.848H1297.26V121.202H1254.25V179.848ZM1209.94 179.848H1252.95V121.202H1209.94V179.848ZM1165.63 179.848H1208.64V121.202H1165.63V179.848ZM1121.32 179.848H1164.33V121.202H1121.32V179.848ZM1077.01 179.848H1120.02V121.202H1077.01V179.848ZM1032.7 179.848H1075.71V121.202H1032.7V179.848ZM988.39 179.848H1031.4V121.202H988.39V179.848ZM944.079 179.848H987.087V121.202H944.079V179.848ZM899.769 179.848H942.776V121.202H899.769V179.848ZM855.459 179.848H898.466V121.202H855.459V179.848ZM811.148 179.848H854.155V121.202H811.148V179.848ZM766.838 179.848H809.845V121.202H766.838V179.848ZM722.527 179.848H765.534V121.202H722.527V179.848ZM678.217 179.848H721.224V121.202H678.217V179.848ZM633.906 179.848H676.913V121.202H633.906V179.848ZM589.596 179.848H632.603V121.202H589.596V179.848ZM545.285 179.848H588.292V121.202H545.285V179.848ZM500.975 179.848H543.982V121.202H500.975V179.848ZM456.664 179.848H499.671V121.202H456.664V179.848ZM412.354 179.848H455.361V121.202H412.354V179.848ZM368.043 179.848H411.051V121.202H368.043V179.848ZM323.733 179.848H366.74V121.202H323.733V179.848ZM279.422 179.848H322.43V121.202H279.422V179.848ZM235.112 179.848H278.119V121.202H235.112V179.848ZM190.801 179.848H233.809V121.202H190.801V179.848ZM146.491 179.848H189.498V121.202H146.491V179.848ZM102.181 179.848H145.188V121.202H102.181V179.848ZM57.87 179.848H100.877V121.202H57.87V179.848ZM13.5596 179.848H56.5668V121.202H13.5596V179.848ZM-30.7509 179.848H12.2563V121.202H-30.7509V179.848ZM-75.0614 179.848H-32.0541V121.202H-75.0614V179.848ZM-119.372 179.848H-76.3646V121.202H-119.372V179.848ZM-163.682 179.848H-120.675V121.202H-163.682V179.848ZM-207.993 179.848H-164.986V121.202H-207.993V179.848ZM1830.29 119.899H1873.3V61.2527H1830.29V119.899ZM1785.98 119.899H1828.99V61.2527H1785.98V119.899ZM1741.67 119.899H1784.68V61.2527H1741.67V119.899ZM1697.36 119.899H1740.36V61.2527H1697.36V119.899ZM1653.05 119.899H1696.05V61.2527H1653.05V119.899ZM1608.74 119.899H1651.74V61.2527H1608.74V119.899ZM1564.43 119.899H1607.43V61.2527H1564.43V119.899ZM1520.12 119.899H1563.12V61.2527H1520.12V119.899ZM1475.81 119.899H1518.81V61.2527H1475.81V119.899ZM1431.49 119.899H1474.5V61.2527H1431.49V119.899ZM1387.18 119.899H1430.19V61.2527H1387.18V119.899ZM1342.87 119.899H1385.88V61.2527H1342.87V119.899ZM1298.56 119.899H1341.57V61.2527H1298.56V119.899ZM1254.25 119.899H1297.26V61.2527H1254.25V119.899ZM1209.94 119.899H1252.95V61.2527H1209.94V119.899ZM1165.63 119.899H1208.64V61.2527H1165.63V119.899ZM1121.32 119.899H1164.33V61.2527H1121.32V119.899ZM1077.01 119.899H1120.02V61.2527H1077.01V119.899ZM1032.7 119.899H1075.71V61.2527H1032.7V119.899ZM988.39 119.899H1031.4V61.2527H988.39V119.899ZM944.079 119.899H987.087V61.2527H944.079V119.899ZM899.769 119.899H942.776V61.2527H899.769V119.899ZM855.459 119.899H898.466V61.2527H855.459V119.899ZM811.148 119.899H854.155V61.2527H811.148V119.899ZM766.838 119.899H809.845V61.2527H766.838V119.899ZM722.527 119.899H765.534V61.2527H722.527V119.899ZM678.217 119.899H721.224V61.2527H678.217V119.899ZM633.906 119.899H676.913V61.2527H633.906V119.899ZM589.596 119.899H632.603V61.2527H589.596V119.899ZM545.285 119.899H588.292V61.2527H545.285V119.899ZM500.975 119.899H543.982V61.2527H500.975V119.899ZM456.664 119.899H499.671V61.2527H456.664V119.899ZM412.354 119.899H455.361V61.2527H412.354V119.899ZM368.043 119.899H411.051V61.2527H368.043V119.899ZM323.733 119.899H366.74V61.2527H323.733V119.899ZM279.422 119.899H322.43V61.2527H279.422V119.899ZM235.112 119.899H278.119V61.2527H235.112V119.899ZM190.801 119.899H233.809V61.2527H190.801V119.899ZM146.491 119.899H189.498V61.2527H146.491V119.899ZM102.181 119.899H145.188V61.2527H102.181V119.899ZM57.87 119.899H100.877V61.2527H57.87V119.899ZM13.5596 119.899H56.5668V61.2527H13.5596V119.899ZM-30.7509 119.899H12.2563V61.2527H-30.7509V119.899ZM-75.0614 119.899H-32.0541V61.2527H-75.0614V119.899ZM-119.372 119.899H-76.3646V61.2527H-119.372V119.899ZM-163.682 119.899H-120.675V61.2527H-163.682V119.899ZM-207.993 119.899H-164.986V61.2527H-207.993V119.899ZM-163.682 59.9495H-120.675V1.30325H-163.682V59.9495ZM-119.372 59.9495H-76.3646V1.30325H-119.372V59.9495ZM-75.0614 59.9495H-32.0541V1.30325H-75.0614V59.9495ZM-30.7509 59.9495H12.2563V1.30325H-30.7509V59.9495ZM13.5596 59.9495H56.5668V1.30325H13.5596V59.9495ZM57.87 59.9495H100.877V1.30325H57.87V59.9495ZM102.181 59.9495H145.188V1.30325H102.181V59.9495ZM146.491 59.9495H189.498V1.30325H146.491V59.9495ZM190.801 59.9495H233.809V1.30325H190.801V59.9495ZM235.112 59.9495H278.119V1.30325H235.112V59.9495ZM279.422 59.9495H322.43V1.30325H279.422V59.9495ZM323.733 59.9495H366.74V1.30325H323.733V59.9495ZM368.043 59.9495H411.051V1.30325H368.043V59.9495ZM412.354 59.9495H455.361V1.30325H412.354V59.9495ZM456.664 59.9495H499.671V1.30325H456.664V59.9495ZM500.975 59.9495H543.982V1.30325H500.975V59.9495ZM545.285 59.9495H588.292V1.30325H545.285V59.9495ZM589.596 59.9495H632.603V1.30325H589.596V59.9495ZM633.906 59.9495H676.913V1.30325H633.906V59.9495ZM678.217 59.9495H721.224V1.30325H678.217V59.9495ZM722.527 59.9495H765.534V1.30325H722.527V59.9495ZM766.838 59.9495H809.845V1.30325H766.838V59.9495ZM811.148 59.9495H854.155V1.30325H811.148V59.9495ZM855.459 59.9495H898.466V1.30325H855.459V59.9495ZM899.769 59.9495H942.776V1.30325H899.769V59.9495ZM944.079 59.9495H987.087V1.30325H944.079V59.9495ZM988.39 59.9495H1031.4V1.30325H988.39V59.9495ZM1032.7 59.9495H1075.71V1.30325H1032.7V59.9495ZM1077.01 59.9495H1120.02V1.30325H1077.01V59.9495ZM1121.32 59.9495H1164.33V1.30325H1121.32V59.9495ZM1165.63 59.9495H1208.64V1.30325H1165.63V59.9495ZM1209.94 59.9495H1252.95V1.30325H1209.94V59.9495ZM1254.25 59.9495H1297.26V1.30325H1254.25V59.9495ZM1298.56 59.9495H1341.57V1.30325H1298.56V59.9495ZM1342.87 59.9495H1385.88V1.30325H1342.87V59.9495ZM1387.18 59.9495H1430.19V1.30325H1387.18V59.9495ZM1431.49 59.9495H1474.5V1.30325H1431.49V59.9495ZM1475.81 59.9495H1518.81V1.30325H1475.81V59.9495ZM1520.12 59.9495H1563.12V1.30325H1520.12V59.9495ZM1564.43 59.9495H1607.43V1.30325H1564.43V59.9495ZM1608.74 59.9495H1651.74V1.30325H1608.74V59.9495ZM1653.05 59.9495H1696.05V1.30325H1653.05V59.9495ZM1697.36 59.9495H1740.36V1.30325H1697.36V59.9495ZM1741.67 59.9495H1784.68V1.30325H1741.67V59.9495ZM1785.98 59.9495H1828.99V1.30325H1785.98V59.9495ZM1830.29 59.9495H1873.3V1.30325H1830.29V59.9495ZM1874.6 59.9495H1915V61.2527H1874.6V119.899H1915V121.202H1874.6V179.848H1915V181.152H1874.6V239.798H1915V241.101H1874.6V299.747H1915V301.051H1874.6V359.697H1915V361H-251V359.697H-209.296V301.051H-251V299.747H-209.296V241.101H-251V239.798H-209.296V181.152H-251V179.848H-209.296V121.202H-251V119.899H-209.296V61.2527H-251V59.9495H-209.296V1.30325H-251V0H1915V1.30325H1874.6V59.9495Z" fill="url(#paint0_radial_2405_2737)"/>
<defs>
<radialGradient id="paint0_radial_2405_2737" cx="0" cy="0" r="1" gradientUnits="userSpaceOnUse" gradientTransform="translate(832 180.5) scale(1083 180.5)">
<stop stop-color="#00AEFF" stop-opacity="0.5"/>
<stop offset="1" stop-color="#00AEFF" stop-opacity="0"/>
</radialGradient>
</defs>
</svg>
