<svg width="64" height="64" viewBox="0 0 64 64" fill="none" xmlns="http://www.w3.org/2000/svg">
<path d="M55.9684 2H15.3798C13.9472 2 12.6225 2.79549 11.9015 4.08882L4.08333 18.1115L9.35579 27.7052C10.903 30.5205 14.7904 30.5205 16.3377 27.7052L20.7506 19.6755C21.4684 18.3694 22.7999 17.564 24.2415 17.564H51.9035C53.3241 17.564 54.6396 16.7817 55.3648 15.5055L59.4297 8.35266C61.0229 5.54924 59.089 2 55.9684 2Z" fill="#00AEFF"/>
<path d="M24.9519 27.3625L14.0267 47.242C13.2984 48.567 13.3154 50.2005 14.0709 51.5087L18.3783 58.9671C19.9636 61.7121 23.7879 61.6687 25.3159 58.8885L33.7968 43.4567C34.5146 42.1506 35.8462 41.3452 37.2878 41.3452H47.6631C49.1047 41.3452 50.4363 40.5398 51.1541 39.2337L55.3764 31.5507C56.9173 28.747 54.98 25.251 51.8855 25.251H28.4428C27.0012 25.251 25.6697 26.0564 24.9519 27.3625Z" fill="#00AEFF"/>
</svg>
