<svg width="128" height="29" viewBox="0 0 128 29" fill="none" xmlns="http://www.w3.org/2000/svg">
<path d="M98.3281 12.5484H101.998L102.789 17.3166V25.0512H99.1192V16.7672L98.3281 12.5484ZM107.249 12.2188C108.363 12.2188 109.315 12.4605 110.106 12.9439C110.897 13.4126 111.497 14.0865 111.908 14.9654C112.332 15.8444 112.545 16.8917 112.545 18.1076V25.0512H108.875V18.6569C108.875 17.529 108.626 16.6793 108.128 16.108C107.645 15.5221 106.934 15.2291 105.997 15.2291C105.338 15.2291 104.766 15.3902 104.283 15.7125C103.799 16.0201 103.426 16.4523 103.162 17.0089C102.913 17.5656 102.789 18.2321 102.789 19.0085L101.58 18.3713C101.727 17.0529 102.064 15.9396 102.591 15.0313C103.118 14.1231 103.778 13.4273 104.569 12.9439C105.374 12.4605 106.268 12.2188 107.249 12.2188ZM116.983 12.2188C118.097 12.2188 119.049 12.4605 119.84 12.9439C120.646 13.4126 121.254 14.0865 121.664 14.9654C122.089 15.8444 122.301 16.8917 122.301 18.1076V25.0512H118.631V18.6569C118.631 17.529 118.382 16.6793 117.884 16.108C117.401 15.5221 116.691 15.2291 115.753 15.2291C115.094 15.2291 114.522 15.3902 114.039 15.7125C113.556 16.0201 113.182 16.4523 112.918 17.0089C112.669 17.5656 112.545 18.2321 112.545 19.0085L111.336 18.3713C111.483 17.0529 111.82 15.9396 112.347 15.0313C112.874 14.1231 113.534 13.4273 114.325 12.9439C115.13 12.4605 116.017 12.2188 116.983 12.2188Z" fill="#0F172A"/>
<path d="M87.651 25.3793C86.4938 25.3793 85.505 25.1449 84.6846 24.6762C83.879 24.1927 83.2564 23.5116 82.8169 22.6326C82.3921 21.7537 82.1797 20.7136 82.1797 19.5124V12.5469H85.8492V18.9631C85.8492 20.0764 86.1129 20.926 86.6403 21.512C87.1676 22.0833 87.9147 22.369 88.8816 22.369C89.5993 22.369 90.2073 22.2225 90.7053 21.9295C91.2181 21.6219 91.6136 21.1824 91.8919 20.6111C92.1702 20.0398 92.3094 19.3733 92.3094 18.6115L93.496 19.2487C93.3495 20.5378 93.0052 21.6438 92.4632 22.5667C91.9212 23.4749 91.2327 24.1708 90.3977 24.6542C89.5774 25.1376 88.6618 25.3793 87.651 25.3793ZM93.0785 25.0497L92.3094 20.3035V12.5469H95.9789V20.8528L96.748 25.0497H93.0785Z" fill="#0F172A"/>
<path d="M70.1172 12.5484H73.8307L74.5778 17.0529V25.0512H70.9082V16.6574L70.1172 12.5484ZM80.6644 12.4165V15.5807C80.2835 15.4928 79.9026 15.4269 79.5218 15.3829C79.1409 15.339 78.782 15.317 78.4451 15.317C77.7126 15.317 77.0534 15.4708 76.4675 15.7784C75.8815 16.0861 75.4201 16.5621 75.0832 17.2067C74.7462 17.8512 74.5778 18.6643 74.5778 19.6457L73.8087 18.7229C73.8966 17.8293 74.0577 16.9943 74.2921 16.2179C74.5265 15.4269 74.8488 14.7384 75.2589 14.1524C75.6838 13.5518 76.2038 13.083 76.8191 12.7461C77.4343 12.3945 78.1667 12.2188 79.0164 12.2188C79.2947 12.2188 79.573 12.2407 79.8514 12.2847C80.1444 12.314 80.4154 12.3579 80.6644 12.4165Z" fill="#0F172A"/>
<path d="M60.8147 25.3808C59.2619 25.3808 57.8996 25.1098 56.7277 24.5678C55.5557 24.0111 54.6402 23.242 53.981 22.2606C53.3218 21.2644 52.9922 20.1145 52.9922 18.8107C52.9922 17.4923 53.3218 16.3424 53.981 15.3609C54.6402 14.3648 55.5557 13.5957 56.7277 13.0537C57.8996 12.4971 59.2619 12.2188 60.8147 12.2188C62.3675 12.2188 63.7298 12.4971 64.9017 13.0537C66.0736 13.5957 66.9819 14.3648 67.6264 15.3609C68.2856 16.3424 68.6152 17.4923 68.6152 18.8107C68.6152 20.1145 68.2856 21.2644 67.6264 22.2606C66.9819 23.242 66.0736 24.0111 64.9017 24.5678C63.7298 25.1098 62.3675 25.3808 60.8147 25.3808ZM60.8147 22.5902C61.6643 22.5902 62.3894 22.4363 62.9901 22.1287C63.6053 21.8211 64.0741 21.389 64.3963 20.8323C64.7333 20.261 64.9017 19.5871 64.9017 18.8107C64.9017 18.0197 64.7333 17.3459 64.3963 16.7892C64.0741 16.2179 63.6053 15.7784 62.9901 15.4708C62.3894 15.1632 61.6643 15.0094 60.8147 15.0094C59.9797 15.0094 59.2546 15.1632 58.6393 15.4708C58.0241 15.7784 57.548 16.2179 57.2111 16.7892C56.8888 17.3459 56.7277 18.0197 56.7277 18.8107C56.7277 19.5871 56.8888 20.261 57.2111 20.8323C57.548 21.389 58.0241 21.8211 58.6393 22.1287C59.2546 22.4363 59.9797 22.5902 60.8147 22.5902Z" fill="#0F172A"/>
<path d="M39.4424 15.5578H51.352V18.744H39.4424V15.5578ZM51.7255 8.57031V11.7784H39.4864L41.3761 9.86674V25.0503H37.6406V8.57031H51.7255Z" fill="#0F172A"/>
<circle cx="126" cy="23" r="2" fill="#0F172A"/>
<path d="M25.9842 0H5.68992C4.97361 0 4.31127 0.391002 3.95073 1.02671L0.0416649 7.91919L2.6779 12.6347C3.45152 14.0186 5.39521 14.0186 6.16883 12.6347L8.37528 8.68797C8.73418 8.04598 9.39995 7.65011 10.1207 7.65011H23.9517C24.6621 7.65011 25.3198 7.26558 25.6824 6.63829L27.7149 3.1225C28.5114 1.74454 27.5445 0 25.9842 0Z" fill="#0F172A"/>
<path d="M10.4759 12.4663L5.01333 22.2376C4.64922 22.8889 4.6577 23.6918 5.03547 24.3348L7.18915 28.0008C7.9818 29.35 9.89397 29.3287 10.6579 27.9621L14.8984 20.377C15.2573 19.735 15.9231 19.3392 16.6439 19.3392H21.8316C22.5524 19.3392 23.2181 18.9433 23.577 18.3013L25.6882 14.5249C26.4586 13.1468 25.49 11.4285 23.9427 11.4285H12.2214C11.5006 11.4285 10.8349 11.8243 10.4759 12.4663Z" fill="#0F172A"/>
</svg>
